<svg xmlns="http://www.w3.org/2000/svg" viewBox="0 0 680 430" role="img" aria-label="Player in yellow and black kit celebrating">
  <defs>
    <linearGradient id="wall" x1="0" y1="0" x2="1" y2="1">
      <stop offset="0" stop-color="#f5dfcf"/>
      <stop offset="1" stop-color="#ead2be"/>
    </linearGradient>
    <filter id="shadow" x="-20%" y="-20%" width="140%" height="140%">
      <feDropShadow dx="0" dy="12" stdDeviation="10" flood-color="#000" flood-opacity=".25"/>
    </filter>
  </defs>
  <rect width="680" height="430" fill="url(#wall)"/>
  <g opacity=".7" font-family="Arial, sans-serif" font-weight="700" fill="#b38b28">
    <text x="52" y="84" font-size="27">ITTIHAD CLUB</text>
    <text x="425" y="92" font-size="24">SPORTS CENTER</text>
    <text x="75" y="334" font-size="22">ITTIHAD CLUB</text>
    <text x="420" y="332" font-size="20">HEALTH CENTRAL</text>
  </g>
  <g fill="#d0a83a" opacity=".55">
    <path d="M84 112h76v56H84z"/>
    <path d="M501 143h42v42h-42z"/>
    <path d="M454 185h42v42h-42z"/>
    <path d="M548 185h42v42h-42z"/>
  </g>
  <g filter="url(#shadow)" transform="translate(160 30)">
    <path d="M158 55c21-44 86-44 109 0-20 15-78 19-109 0z" fill="#3b2018"/>
    <circle cx="213" cy="112" r="48" fill="#c47e5a"/>
    <path d="M160 101c18-63 80-70 111-26-19 22-61 31-111 26z" fill="#271712"/>
    <path d="M121 194c-58 18-91 57-102 118l47 13c14-40 37-64 68-76z" fill="#c47e5a"/>
    <path d="M296 195c58 20 93 58 105 117l-47 15c-14-40-38-64-70-77z" fill="#c47e5a"/>
    <path d="M117 186c52-36 121-37 182 0l31 150H87z" fill="#181818"/>
    <path d="M137 177h30v159h-30zM195 170h31v166h-31zM254 178h31v158h-31z" fill="#ffd438"/>
    <path d="M146 168l62 73 59-73" fill="none" stroke="#fff8d5" stroke-width="8" stroke-linecap="round"/>
    <circle cx="47" cy="314" r="24" fill="#c47e5a"/>
    <circle cx="373" cy="315" r="24" fill="#c47e5a"/>
    <path d="M88 335h247l-16 58H104z" fill="#f6f2e8"/>
  </g>
</svg>
