<svg xmlns="http://www.w3.org/2000/svg" viewBox="0 0 680 430" role="img" aria-label="Goalkeeper in yellow kit celebrating">
  <defs>
    <linearGradient id="night" x1="0" y1="0" x2="0" y2="1">
      <stop offset="0" stop-color="#202027"/>
      <stop offset=".55" stop-color="#47424a"/>
      <stop offset="1" stop-color="#24532a"/>
    </linearGradient>
    <filter id="shadow" x="-20%" y="-20%" width="140%" height="140%">
      <feDropShadow dx="0" dy="12" stdDeviation="11" flood-color="#000" flood-opacity=".32"/>
    </filter>
  </defs>
  <rect width="680" height="430" fill="url(#night)"/>
  <path d="M0 308c106 20 206 18 305-4 123-27 248-25 375 3v123H0z" fill="#1d5a29"/>
  <g opacity=".28" fill="#f4f4f4">
    <circle cx="92" cy="94" r="25"/>
    <rect x="70" y="120" width="44" height="122" rx="20"/>
    <circle cx="590" cy="132" r="23"/>
    <rect x="572" y="157" width="38" height="102" rx="18"/>
  </g>
  <g filter="url(#shadow)" transform="translate(83 18)">
    <path d="M83 226c-49 12-85 31-108 59l31 39c35-28 72-44 111-48z" fill="#83533f"/>
    <path d="M392 225c50 12 87 31 112 59l-33 39c-35-28-72-44-112-48z" fill="#83533f"/>
    <path d="M194 69c34-31 90-21 112 19-38 32-81 36-127 12z" fill="#161616"/>
    <circle cx="241" cy="124" r="46" fill="#9d6a4e"/>
    <path d="M192 126c4-56 39-78 102-64 16 24 17 50 4 79-29-24-62-29-106-15z" fill="#111"/>
    <path d="M105 213c72-55 173-55 246 0l28 116H75z" fill="#e0f21e"/>
    <path d="M134 203c56 32 120 32 190 0" fill="none" stroke="#335fd2" stroke-width="9"/>
    <path d="M172 193l66 87 65-87" fill="none" stroke="#335fd2" stroke-width="10" stroke-linecap="round"/>
    <text x="239" y="283" text-anchor="middle" fill="#233154" font-family="Arial, sans-serif" font-size="54" font-weight="800">13</text>
    <path d="M113 329h244l-9 64H124z" fill="#e0f21e"/>
    <path d="M139 393h64l30-126-65-6z" fill="#83533f"/>
    <path d="M276 393h65l-30-126 65-6z" fill="#83533f"/>
  </g>
</svg>
